<svg xmlns="http://www.w3.org/2000/svg" viewBox="0 0 32 32" width="32" height="32">
  <defs>
    <linearGradient id="grad1" x1="0%" y1="0%" x2="100%" y2="100%">
      <stop offset="0%" style="stop-color:#667eea;stop-opacity:1" />
      <stop offset="100%" style="stop-color:#764ba2;stop-opacity:1" />
    </linearGradient>
  </defs>
  
  <!-- Background circle -->
  <circle cx="16" cy="16" r="15" fill="url(#grad1)" stroke="#fff" stroke-width="1"/>
  
  <!-- Palette icon -->
  <g transform="translate(8, 8)">
    <!-- Palette shape -->
    <path d="M8 2C4.7 2 2 4.7 2 8c0 2.4 1.4 4.5 3.5 5.5L6 14c.3.3.7.3 1 0l.5-.5C9.6 12.5 11 10.4 11 8c0-3.3-2.7-6-6-6z" 
          fill="#fff" opacity="0.9"/>
    
    <!-- Color dots -->
    <circle cx="6" cy="6" r="1" fill="#ff6b6b"/>
    <circle cx="10" cy="6" r="1" fill="#4ecdc4"/>
    <circle cx="8" cy="9" r="1" fill="#45b7d1"/>
    <circle cx="6" cy="10" r="0.8" fill="#96ceb4"/>
    <circle cx="10" cy="10" r="0.8" fill="#feca57"/>
  </g>
  
  <!-- Small gear icon for testing -->
  <g transform="translate(22, 22) scale(0.4)" opacity="0.8">
    <circle cx="8" cy="8" r="3" fill="none" stroke="#fff" stroke-width="1.5"/>
    <path d="M8 1v2M8 13v2M15 8h-2M3 8H1M13.66 4.34l-1.41 1.41M5.75 10.25l-1.41 1.41M13.66 11.66l-1.41-1.41M5.75 5.75L4.34 4.34" 
          stroke="#fff" stroke-width="1.5" stroke-linecap="round"/>
  </g>
</svg>